<svg width="46" height="63" viewBox="0 0 46 63" fill="none" xmlns="http://www.w3.org/2000/svg">
<path d="M22.9902 1.9148e-09C16.9113 0.00503221 11.0813 2.39405 6.77374 6.64526C2.46614 10.8965 0.030934 16.6644 0 22.6893C0 31.7224 5.11328 39.2855 8.86042 44.7983L9.54349 45.8041C13.2717 51.1595 17.2711 56.3242 21.5265 61.2785L23.0098 63L24.493 61.2785C28.7479 56.3238 32.7473 51.159 36.476 45.8041L37.1591 44.7789C40.8867 39.2662 46 31.7224 46 22.6893C45.969 16.6611 43.5312 10.8902 39.2193 6.63845C34.9075 2.38668 29.0726 -7.80606e-05 22.9902 1.9148e-09ZM22.9902 32.883C20.4581 32.883 17.9828 32.1388 15.8774 30.7445C13.772 29.3503 12.1311 27.3685 11.1621 25.0499C10.1931 22.7313 9.93953 20.18 10.4335 17.7185C10.9275 15.2571 12.1469 12.9962 13.9374 11.2216C15.7278 9.447 18.0091 8.23849 20.4926 7.74888C22.976 7.25927 25.5502 7.51056 27.8896 8.47096C30.229 9.43136 32.2285 11.0577 33.6353 13.1444C35.0421 15.2311 35.793 17.6844 35.793 20.194C35.793 23.5594 34.4441 26.7869 32.0431 29.1665C29.6422 31.5462 26.3857 32.883 22.9902 32.883Z" fill="#005BAA"/>
</svg>
