<svg width="180" height="58" viewBox="0 0 180 58" fill="none" xmlns="http://www.w3.org/2000/svg">
<path fill-rule="evenodd" clip-rule="evenodd" d="M39.4553 42.732L41.2996 30.8259H56.7081V34.6748H44.8215L44.1909 39.5439C44.7025 39.0454 45.94 38.686 46.6658 38.5005C47.4035 38.3034 48.284 38.0484 49.331 38.0484C51.6988 38.0484 54.1261 38.6744 55.9704 40.2279C57.8265 41.7929 58.2906 43.8913 58.2906 45.9316C58.2906 48.2618 57.422 50.1747 55.3874 51.6586C53.3408 53.1541 50.9254 53.8961 48.1293 53.8961C45.4878 53.8961 43.358 53.4207 41.6208 51.9716C39.8956 50.5225 39.027 48.5169 38.9199 46.662H44.4408C44.5717 47.4619 44.5598 48.598 45.3332 49.1545C46.1066 49.711 47.0346 49.9892 48.1293 49.9892C49.3548 49.9892 50.39 49.595 51.2467 48.8067C52.1034 48.03 52.6864 46.9171 52.6864 45.7809C52.6864 44.8535 52.2343 43.2305 51.3419 42.4537C50.4495 41.6654 49.4262 41.2712 48.284 41.2712C47.5701 41.2712 46.7729 41.5379 46.2255 41.7581C45.6901 41.9668 45.2023 42.303 44.7739 42.732H39.4553V42.732ZM71.2599 30.5013C73.6396 30.5013 75.4363 31.0462 77.2686 32.1359C79.2914 33.33 80.3027 34.8719 80.3027 36.7615C80.3027 37.8049 79.9696 38.7208 79.2914 39.5091C78.6132 40.2858 77.7208 40.935 76.6261 41.4335C77.8041 41.7813 78.8511 42.5001 79.7673 43.6014C80.6835 44.7028 81.1475 45.8041 81.1475 46.917C81.1475 49.0038 80.1005 50.708 77.9944 52.0412C76.0193 53.2816 73.9847 53.8961 71.2599 53.8961C68.2853 53.8961 66.1436 53.27 64.216 52.0064C62.3004 50.7428 61.3366 49.0618 61.3366 46.9518C61.3366 45.7925 61.8006 44.6796 62.7168 43.6014C63.6449 42.5233 64.7158 41.8045 65.9413 41.4335C65.0608 41.0626 64.2636 40.4829 63.5378 39.7062C62.6573 38.744 62.2171 37.7701 62.2171 36.7615C62.2171 34.8487 63.1928 33.3068 65.1441 32.1359C66.9289 31.0462 68.7612 30.5013 71.2599 30.5013V30.5013ZM71.2599 39.9033C72.5212 39.9033 73.1994 39.6598 74.0442 39.1845C74.8889 38.6976 75.3173 38.0252 75.3173 37.1557C75.3173 36.2862 74.9008 35.6138 74.068 35.1385C73.2351 34.6516 72.5449 34.4197 71.2599 34.4197C70.0463 34.4197 69.3681 34.6516 68.5114 35.1385C67.6428 35.6138 67.2144 36.2862 67.2144 37.1557C67.2144 38.0484 67.6309 38.7324 68.4638 39.1961C69.2848 39.6598 69.9868 39.9033 71.2599 39.9033V39.9033ZM71.2718 42.9059C69.9392 42.9059 68.8564 43.2421 68.0116 43.8913C67.1787 44.5405 66.7623 45.4563 66.7623 46.6388C66.7623 47.6822 67.1906 48.5053 68.0354 49.0965C68.8921 49.6878 69.963 49.9892 71.2718 49.9892C72.6877 49.9892 73.7824 49.6994 74.5558 49.1429C75.3411 48.5865 75.7337 47.7402 75.7337 46.604C75.7337 45.4679 75.3173 44.5637 74.4963 43.9029C73.6753 43.2421 72.5925 42.9059 71.2718 42.9059V42.9059ZM16.6816 42.732L18.5259 30.8259H33.9344V34.6748H22.0598L21.4291 39.5439C21.9289 39.0454 23.1782 38.686 23.904 38.5005C24.6417 38.3034 25.5222 38.0484 26.5693 38.0484C28.9371 38.0484 31.3525 38.6744 33.2086 40.2279C35.0648 41.7929 35.5169 43.8913 35.5169 45.9316C35.5169 48.2618 34.6602 50.1747 32.6256 51.6586C30.5791 53.1541 28.1637 53.8961 25.3675 53.8961C22.7261 53.8961 20.5962 53.4207 18.8591 51.9716C17.1219 50.5225 16.2652 48.5169 16.1581 46.662H21.6671C21.8099 47.4619 21.798 48.598 22.5714 49.1545C23.3329 49.711 24.2729 49.9892 25.3675 49.9892C26.5931 49.9892 27.6282 49.595 28.4849 48.8067C29.3297 48.03 29.9127 46.9171 29.9127 45.7809C29.9127 44.8535 29.4725 43.2305 28.5801 42.4537C27.6877 41.6654 26.6645 41.2712 25.5222 41.2712C24.7964 41.2712 24.0111 41.5379 23.4638 41.7581C22.9164 41.9668 22.4286 42.303 22.0122 42.732H16.6816V42.732ZM90.3688 55.6002V33.5735L91.0709 33.4227L97.7935 31.8577L104.659 23.731L108.443 23.2788L113.38 22.5369L118.176 21.9456L122.578 21.1921C127.195 20.253 131.764 19.2445 136.345 18.1779L141.58 16.4505L143.448 15.5811L145.851 13.7378L154.978 10.3062L144.067 8.1615L140.485 6.8399L138.367 6.19069L135.964 5.669L127.397 5.05457L122.364 4.91545L119.615 4.63722L118.449 4.3358L111.405 2.46932L109.43 2.09834H105.837L103.6 2.51569L102.053 3.29242C98.1623 4.79952 94.2596 6.29502 90.3688 7.80212V2.39976H2.61766V55.6002H90.3688V55.6002ZM117.164 49.2704H109.466L108.407 52.7947H101.506L109.728 31.4867H117.093L125.315 52.7947H118.235L117.164 49.2704V49.2704ZM115.748 44.668L113.333 37.005L110.929 44.668H115.748ZM127.444 31.4867H138.677C141.116 31.4867 142.948 32.0548 144.162 33.1909C145.375 34.327 145.994 35.9384 145.994 38.0252C145.994 40.1815 145.328 41.8625 143.995 43.0682C142.675 44.2738 140.652 44.8883 137.927 44.8883H134.227V52.7947H127.444V31.4867V31.4867ZM134.227 40.5757H135.88C137.189 40.5757 138.094 40.3554 138.629 39.9149C139.153 39.4743 139.414 38.9063 139.414 38.2223C139.414 37.5499 139.188 36.9818 138.724 36.5181C138.272 36.0544 137.415 35.8225 136.154 35.8225H134.227V40.5757V40.5757ZM163.235 41.2133C165.853 41.8973 167.162 43.5087 167.162 46.036C167.162 48.1227 166.341 49.8269 164.699 51.1485C163.057 52.4817 160.724 53.1541 157.726 53.1541C152.598 53.1541 149.409 51.0558 148.172 46.8591L154.549 46.3954C154.906 47.8793 155.929 48.6212 157.607 48.6212C158.547 48.6212 159.249 48.3894 159.737 47.9372C160.213 47.4851 160.451 46.8475 160.451 46.036C160.451 45.2477 160.153 44.61 159.547 44.1231C158.94 43.6362 158.107 43.3812 157.06 43.3812H155.227V39.5787H156.667C157.536 39.5787 158.214 39.3584 158.702 38.9294C159.19 38.4773 159.439 37.8629 159.439 37.0861C159.439 35.9384 158.702 35.3588 157.214 35.3588C155.691 35.3588 154.799 36.0196 154.549 37.3528L148.505 36.6572C149.492 32.9706 152.443 31.1273 157.345 31.1273C160.058 31.1273 162.176 31.6374 163.723 32.6692C165.258 33.6894 166.031 35.0805 166.031 36.8079C166.031 38.8947 165.103 40.367 163.235 41.2133V41.2133ZM0 0H180V58H0V0ZM24.9392 17.7258C26.0576 17.7721 27.1285 17.7953 28.2708 17.7953L28.9133 20.311H28.1161L25.8911 19.2792L10.6372 11.593L6.1991 14.3986L6.9844 17.7953L5.87784 18.5373L7.7816 18.8271L12.7076 30.5013L13.0288 31.3824L7.30566 32.7156L13.0288 33.4575L14.1354 36.1123L14.9326 35.9616L15.6227 39.6134L17.2052 29.4H35.4812V35.6486H23.6185L23.4995 37.1209L23.785 37.0398L24.1063 36.9586L24.4513 36.8775L24.8202 36.7963L25.2247 36.7268L25.6412 36.6688L26.0933 36.634L26.5693 36.6224L27.5687 36.6572L28.5682 36.7615L29.5677 36.9354L30.5553 37.2021L31.519 37.5499L32.459 37.9904L33.3633 38.5237L34.22 39.1729L35.0053 39.9149L35.6359 40.738L36.0524 41.4335L38.1822 40.9466L39.9669 29.4H58.243V35.6486H46.3802L46.2731 37.1209L46.5468 37.0398L46.8681 36.9586L47.2131 36.8775L47.582 36.7963L47.9865 36.7268L48.4149 36.6688L48.8551 36.634L49.331 36.6224L50.3305 36.6572L51.33 36.7615L52.3295 36.9354L53.317 37.2021L54.2808 37.5499L54.3046 37.5615L60.7179 36.3326L60.7417 35.9384L60.9201 35.069L61.2176 34.2459L61.6341 33.4575L62.1695 32.7272L62.8001 32.0664L63.514 31.4751L64.3112 30.9302L65.0846 30.5013L65.8699 30.1187L66.679 29.8057L67.5119 29.5391L68.3924 29.3304L69.3086 29.1913L70.2604 29.0985L71.2718 29.0754L72.2237 29.0985L73.1518 29.1913L74.0323 29.3304L74.889 29.5391L75.7218 29.8057L76.519 30.1187L77.3043 30.4897L78.0777 30.9302L78.8987 31.4635L79.6483 32.0664L80.1838 32.5996L90.3927 30.652L96.1158 29.3188L103.112 21.0414L108.038 20.4501L112.964 19.7198L117.723 19.1285L122.019 18.3866L125.672 17.6446L128.373 17.0534L132.335 16.1723L135.524 15.4303L138.224 14.5493L140.438 13.8073L142.032 13.0654L143.305 12.335L144.257 11.8945L145.53 11.593L147.755 11.1525L148.54 11.0018V10.8511L147.755 11.0018L144.888 11.1525H143.781L142.984 11.0018L139.486 9.6686L137.582 9.08895L135.524 8.63682L131.859 8.34699L127.254 8.04557L122.173 7.90646L119.151 7.60504L117.723 7.31521L117.402 7.1645L112.964 5.98201L110.739 5.39076L109.145 5.10094H107.717H106.122L104.54 5.39076L103.897 5.68059L103.421 5.98201L90.3927 11.0018L71.3313 18.3866L63.0738 21.6326L51.1515 21.3428L48.6171 19.8705L31.4595 9.97002L27.0095 13.2161L27.6401 16.6128C26.7478 16.9954 25.8435 17.3664 24.9392 17.7258V17.7258Z" fill="white"/>
</svg>
